<svg width="56" height="36" viewBox="0 0 56 36" fill="none" xmlns="http://www.w3.org/2000/svg">
<path d="M50.0781 2.9375V6.25893H36.3906V2.9375H50.0781ZM43.3281 14.3482C46.7031 14.3482 48.3906 16.3304 48.6853 19.5714H37.7567C37.971 16.3571 40.1138 14.3482 43.3281 14.3482ZM43.7567 30.0179C39.8192 30.0179 37.7567 27.7143 37.7567 23.8036H55.3817C55.4085 23.4018 55.4353 22.9732 55.4353 22.5446C55.4353 15.3125 51.2031 9.28571 43.5424 9.28571C36.096 9.28571 31.0335 14.8839 31.0335 22.2232C31.0335 29.8304 35.8281 35.0536 43.5424 35.0536C49.3817 35.0536 53.1585 32.4286 54.9799 26.8304H49.0603C48.4174 28.9196 45.7924 30.0179 43.7567 30.0179ZM7.99777 28.6786V19.3839H16.0871C19.3549 19.3839 21.4174 20.75 21.4174 24.2054C21.4174 27.6071 18.9531 28.6786 15.9263 28.6786H7.99777ZM7.99777 14.2946V6.41964H14.9621C17.6406 6.41964 20.0513 7.16964 20.0513 10.2768C20.0513 13.1429 18.1763 14.2946 15.5246 14.2946H7.99777ZM0.578125 0.660712V34.4107H16.9442C23.0781 34.4107 28.8371 31.4643 28.8371 24.6071C28.8371 20.375 26.8281 17.2411 22.6763 16.0625C25.7031 14.6161 27.2835 12.4196 27.2835 9.01785C27.2835 2.29464 22.2746 0.660712 16.4888 0.660712H0.578125Z" fill="#1E0E62"/>
</svg>
