<svg width="42" height="42" viewBox="0 0 42 42" fill="none" xmlns="http://www.w3.org/2000/svg">
<path d="M28.2723 37.0357C26.1562 37.9196 23.8527 38.4286 21.4152 38.4286C17.1563 38.4286 13.2723 36.9018 10.2188 34.4107C10.2188 34.4107 10.4598 34.5714 10.6205 34.7054C13.9955 27.3661 24.4152 23.7232 24.4152 23.7232C24.442 23.7232 24.4955 23.6964 24.5223 23.6964C26.9866 30.125 28.0045 35.4821 28.2723 37.0357ZM23.317 20.7768C23.1027 20.8571 22.8616 20.9107 22.6205 20.9911C22.6205 20.9911 13.1384 24.0446 8.34375 32.5893C5.55804 29.4821 3.84375 25.3571 3.84375 20.8571C3.84375 20.6696 3.84375 20.4821 3.87054 20.2946C4.16518 20.2946 12.8438 20.5089 21.8973 17.8036C22.4063 18.7946 22.8884 19.7857 23.317 20.7768ZM20.4509 15.0982C12.0134 17.3214 4.67411 17.2411 4.21875 17.2411C5.37054 11.8036 9.01339 7.27678 13.9152 4.97321C14.1562 5.29464 17.3973 9.6875 20.4509 15.0982ZM38.7723 23.6429C37.9688 28.5446 35.183 32.7768 31.2455 35.4286C31.058 34.3839 30.1205 29.2143 27.817 22.8661C33.4955 21.9821 38.3973 23.5357 38.7723 23.6429ZM17.2098 3.79464C17.183 3.79464 17.1563 3.82143 17.1563 3.82143C17.183 3.79464 17.183 3.79464 17.2098 3.79464ZM33.0134 7.67857C32.9598 7.75893 30.4688 11.5625 23.8527 14.0268C20.8527 8.50893 17.5313 4.14285 17.2634 3.79464C18.6027 3.47321 19.9955 3.28571 21.4152 3.28571C25.8616 3.28571 29.933 4.94643 33.0134 7.67857ZM38.9866 20.6696C38.7723 20.6429 32.7991 19.3304 26.7455 20.1071C26.6116 19.8125 26.5045 19.4911 26.3705 19.1964C25.9955 18.3393 25.5938 17.4821 25.192 16.6518C32.1295 13.8125 34.942 9.74107 34.9955 9.6875C37.4598 12.6875 38.933 16.5179 38.9866 20.6696ZM41.9866 20.8571C41.9866 9.5 32.7723 0.285712 21.4152 0.285712C10.058 0.285712 0.84375 9.5 0.84375 20.8571C0.84375 32.2143 10.058 41.4286 21.4152 41.4286C32.7723 41.4286 41.9866 32.2143 41.9866 20.8571Z" fill="#1E0E62"/>
</svg>
