<svg width="42" height="42" viewBox="0 0 42 42" fill="none" xmlns="http://www.w3.org/2000/svg">
<path d="M33.8504 0.285712H8.13616C3.87723 0.285712 0.421875 3.74107 0.421875 8V33.7143C0.421875 37.9732 3.87723 41.4286 8.13616 41.4286H22.3862V25.4911H17.029V19.2768H22.3862V14.6964C22.3862 9.39285 25.654 6.5 30.3951 6.5C32.6451 6.5 34.6004 6.66071 35.1629 6.74107V12.2857L31.8951 12.3125C29.2969 12.3125 28.8147 13.5179 28.8147 15.3125V19.2768H34.9487L34.1451 25.4911H28.8147V41.4286H33.8504C38.1094 41.4286 41.5647 37.9732 41.5647 33.7143V8C41.5647 3.74107 38.1094 0.285712 33.8504 0.285712Z" fill="#EBEAED"/>
</svg>
