<svg width="42" height="42" viewBox="0 0 42 42" fill="none" xmlns="http://www.w3.org/2000/svg">
<path d="M27.8504 20.8571C27.8504 24.6339 24.7701 27.7143 20.9933 27.7143C17.2165 27.7143 14.1362 24.6339 14.1362 20.8571C14.1362 17.0804 17.2165 14 20.9933 14C24.7701 14 27.8504 17.0804 27.8504 20.8571ZM31.5469 20.8571C31.5469 15.0179 26.8326 10.3036 20.9933 10.3036C15.154 10.3036 10.4397 15.0179 10.4397 20.8571C10.4397 26.6964 15.154 31.4107 20.9933 31.4107C26.8326 31.4107 31.5469 26.6964 31.5469 20.8571ZM34.4397 9.875C34.4397 8.50893 33.3415 7.41071 31.9754 7.41071C30.6094 7.41071 29.5112 8.50893 29.5112 9.875C29.5112 11.2411 30.6094 12.3393 31.9754 12.3393C33.3415 12.3393 34.4397 11.2411 34.4397 9.875ZM20.9933 3.98214C23.9933 3.98214 30.4219 3.74107 33.1272 4.8125C34.0647 5.1875 34.7612 5.64285 35.4844 6.36607C36.2076 7.08928 36.6629 7.78571 37.0379 8.72321C38.1094 11.4286 37.8683 17.8571 37.8683 20.8571C37.8683 23.8571 38.1094 30.2857 37.0379 32.9911C36.6629 33.9286 36.2076 34.625 35.4844 35.3482C34.7612 36.0714 34.0647 36.5268 33.1272 36.9018C30.4219 37.9732 23.9933 37.7321 20.9933 37.7321C17.9933 37.7321 11.5647 37.9732 8.85938 36.9018C7.92188 36.5268 7.22545 36.0714 6.50223 35.3482C5.77902 34.625 5.32366 33.9286 4.94866 32.9911C3.87723 30.2857 4.1183 23.8571 4.1183 20.8571C4.1183 17.8571 3.87723 11.4286 4.94866 8.72321C5.32366 7.78571 5.77902 7.08928 6.50223 6.36607C7.22545 5.64285 7.92188 5.1875 8.85938 4.8125C11.5647 3.74107 17.9933 3.98214 20.9933 3.98214ZM41.5647 20.8571C41.5647 18.0179 41.5915 15.2054 41.4308 12.3661C41.2701 9.07143 40.5201 6.15178 38.1094 3.74107C35.6987 1.33035 32.779 0.580355 29.4844 0.419642C26.6451 0.258927 23.8326 0.285712 20.9933 0.285712C18.154 0.285712 15.3415 0.258927 12.5022 0.419642C9.20759 0.580355 6.28795 1.33035 3.87723 3.74107C1.46652 6.15178 0.716518 9.07143 0.555804 12.3661C0.395089 15.2054 0.421875 18.0179 0.421875 20.8571C0.421875 23.6964 0.395089 26.5089 0.555804 29.3482C0.716518 32.6429 1.46652 35.5625 3.87723 37.9732C6.28795 40.3839 9.20759 41.1339 12.5022 41.2946C15.3415 41.4554 18.154 41.4286 20.9933 41.4286C23.8326 41.4286 26.6451 41.4554 29.4844 41.2946C32.779 41.1339 35.6987 40.3839 38.1094 37.9732C40.5201 35.5625 41.2701 32.6429 41.4308 29.3482C41.5915 26.5089 41.5647 23.6964 41.5647 20.8571Z" fill="#EBEAED"/>
</svg>
