<svg width="35" height="46" viewBox="0 0 35 46" fill="none" xmlns="http://www.w3.org/2000/svg">
<path d="M0.367188 16.8482C0.367188 20.3571 1.76004 25.4732 5.5904 26.625C5.72433 26.6518 5.91183 26.7054 6.04576 26.7054C6.92969 26.7054 7.43862 24.2411 7.43862 23.5446C7.43862 22.7143 5.32254 20.9464 5.32254 17.4911C5.32254 10.3125 10.7868 5.22321 17.8583 5.22321C23.9386 5.22321 28.4386 8.67857 28.4386 15.0268C28.4386 19.7679 26.5368 28.6607 20.3761 28.6607C18.1529 28.6607 16.2511 27.0536 16.2511 24.75C16.2511 21.375 18.6083 18.1071 18.6083 14.625C18.6083 12.5089 17.4029 10.7946 15.1529 10.7946C12.0993 10.7946 10.2243 14.2232 10.2243 16.9286C10.2243 18.4286 10.4118 20.0893 11.0815 21.4554C9.84933 26.7589 7.33147 34.6607 7.33147 40.125C7.33147 41.8125 7.57255 43.4732 7.73326 45.1607L7.97433 45.4286L8.34933 45.2946C12.8493 39.1339 12.6886 37.9286 14.7243 29.8661C15.8225 31.9554 18.6618 33.0804 20.9118 33.0804C30.394 33.0804 34.6529 23.8393 34.6529 15.5089C34.6529 6.64285 26.9922 0.85714 18.5815 0.85714C9.42076 0.85714 0.367188 6.96428 0.367188 16.8482Z" fill="#1E0E62"/>
</svg>
