<svg width="52" height="53" viewBox="0 0 52 53" fill="none" xmlns="http://www.w3.org/2000/svg">
<path d="M13.0675 4.3058C17.0184 2.00669 21.3265 0.85714 25.9916 0.85714C30.6568 0.85714 34.9537 2.00669 38.8823 4.3058C42.8332 6.60491 45.9582 9.72991 48.2573 13.6808C50.5564 17.6094 51.7059 21.9062 51.7059 26.5714C51.7059 31.2366 50.5564 35.5446 48.2573 39.4955C45.9582 43.4241 42.8332 46.5379 38.8823 48.8371C34.9537 51.1362 30.6568 52.2857 25.9916 52.2857C21.3265 52.2857 17.0184 51.1362 13.0675 48.8371C9.13895 46.5379 6.02511 43.4241 3.726 39.4955C1.4269 35.5446 0.277344 31.2366 0.277344 26.5714C0.277344 21.9062 1.4269 17.6094 3.726 13.6808C6.02511 9.72991 9.13895 6.60491 13.0675 4.3058ZM38.8488 28.4129C39.5631 28.0112 39.9202 27.3973 39.9202 26.5714C39.9202 25.7455 39.5631 25.1317 38.8488 24.7299L20.6345 14.0156C19.9425 13.5915 19.2282 13.5804 18.4916 13.9821C17.7773 14.4062 17.4202 15.0312 17.4202 15.8571V37.2857C17.4202 38.1116 17.7773 38.7366 18.4916 39.1607C18.8488 39.3393 19.2059 39.4286 19.5631 39.4286C19.9425 39.4286 20.2997 39.3281 20.6345 39.1272L38.8488 28.4129Z" fill="white"/>
</svg>
