<svg width="32" height="57" viewBox="0 0 32 57" fill="none" xmlns="http://www.w3.org/2000/svg">
<path d="M30.6317 15.5223C30.3304 15.221 29.9286 15.0201 29.4933 15.0201C29.3594 15.0201 29.2254 15.0536 29.0915 15.0871L15.8326 18.3683L21.558 2.86607C21.6585 2.66518 21.7254 2.46428 21.7254 2.26339C21.7254 1.4933 21.0558 0.85714 20.2188 0.85714H9.23661C8.53348 0.85714 7.9308 1.29241 7.76339 1.92857L1.03348 29.5513C0.933036 30.0201 1.06696 30.5223 1.46875 30.8571C1.73661 31.0915 2.13839 31.2254 2.5067 31.2254C2.64063 31.2254 2.77455 31.2254 2.90848 31.192L16.5022 27.8103L9.90625 54.8638C9.73884 55.567 10.1741 56.2701 10.9107 56.5045C11.0781 56.5379 11.2455 56.5714 11.3795 56.5714C11.9821 56.5714 12.5179 56.2366 12.7857 55.7344L30.8661 16.9955C31.1004 16.4933 31 15.9241 30.6317 15.5223Z" fill="white"/>
</svg>
