<svg width="60" height="55" viewBox="0 0 60 55" fill="none" xmlns="http://www.w3.org/2000/svg">
<path d="M22.2991 15.6763C20.9598 17.7299 19.4308 20.7768 17.7121 24.817C17.221 23.8125 16.808 23.0089 16.4732 22.4062C16.1384 21.7812 15.6808 21.067 15.1004 20.2634C14.5424 19.4598 13.9732 18.8348 13.3929 18.3884C12.8348 17.9196 12.1317 17.529 11.2835 17.2165C10.4576 16.8817 9.55357 16.7143 8.57143 16.7143H1.07143C0.758929 16.7143 0.502232 16.6138 0.301339 16.4129C0.100446 16.2121 0 15.9554 0 15.6429V9.21428C0 8.90178 0.100446 8.64509 0.301339 8.44419C0.502232 8.2433 0.758929 8.14286 1.07143 8.14286H8.57143C14.1518 8.14286 18.7277 10.654 22.2991 15.6763ZM59.6987 41.6585C59.8996 41.8594 60 42.1161 60 42.4286C60 42.7411 59.8996 42.9978 59.6987 43.1987L48.9844 53.9129C48.7835 54.1138 48.5268 54.2143 48.2143 54.2143C47.9241 54.2143 47.6674 54.1027 47.4442 53.8795C47.2433 53.6786 47.1429 53.433 47.1429 53.1429V46.7143C46.4286 46.7143 45.4799 46.7254 44.2969 46.7478C43.1138 46.7478 42.2098 46.7589 41.5848 46.7812C40.9598 46.7812 40.1451 46.7701 39.1406 46.7478C38.1362 46.7031 37.3438 46.6473 36.7634 46.5804C36.183 46.4911 35.4688 46.3683 34.6205 46.2121C33.7723 46.0558 33.0692 45.8549 32.5112 45.6094C31.9531 45.3415 31.3058 45.0179 30.5692 44.6384C29.8326 44.2589 29.1741 43.8125 28.5938 43.2991C28.0134 42.7857 27.3996 42.1942 26.7522 41.5246C26.1049 40.8326 25.4799 40.0513 24.8772 39.1808C26.1942 37.1049 27.7121 34.058 29.4308 30.0402C29.9219 31.0446 30.3348 31.8594 30.6696 32.4844C31.0045 33.0871 31.4509 33.7902 32.0089 34.5938C32.5893 35.3973 33.1585 36.0335 33.7165 36.5022C34.2969 36.9487 35 37.3393 35.8259 37.6741C36.6741 37.9866 37.5893 38.1429 38.5714 38.1429H47.1429V31.7143C47.1429 31.4018 47.2433 31.1451 47.4442 30.9442C47.6451 30.7433 47.9018 30.6429 48.2143 30.6429C48.4821 30.6429 48.75 30.7545 49.0179 30.9777L59.6987 41.6585ZM59.6987 11.6585C59.8996 11.8594 60 12.1161 60 12.4286C60 12.7411 59.8996 12.9978 59.6987 13.1987L48.9844 23.9129C48.7835 24.1138 48.5268 24.2143 48.2143 24.2143C47.9241 24.2143 47.6674 24.1138 47.4442 23.9129C47.2433 23.6897 47.1429 23.433 47.1429 23.1429V16.7143H38.5714C37.5 16.7143 36.529 16.8817 35.6585 17.2165C34.7879 17.5513 34.0179 18.0536 33.3482 18.7232C32.6786 19.3929 32.1094 20.0848 31.6406 20.7991C31.1719 21.4911 30.6696 22.3504 30.1339 23.3772C29.4196 24.7612 28.5491 26.6696 27.5223 29.1027C26.875 30.5759 26.317 31.8147 25.8482 32.8192C25.4018 33.8237 24.7991 34.9955 24.0402 36.3348C23.3036 37.6741 22.5893 38.7902 21.8973 39.683C21.2277 40.5759 20.4018 41.5022 19.4196 42.4621C18.4598 43.4219 17.4554 44.192 16.4062 44.7723C15.3795 45.3304 14.1964 45.7991 12.8571 46.1786C11.5179 46.5357 10.0893 46.7143 8.57143 46.7143H1.07143C0.758929 46.7143 0.502232 46.6138 0.301339 46.4129C0.100446 46.2121 0 45.9554 0 45.6429V39.2143C0 38.9018 0.100446 38.6451 0.301339 38.4442C0.502232 38.2433 0.758929 38.1429 1.07143 38.1429H8.57143C9.64286 38.1429 10.6138 37.9754 11.4844 37.6406C12.3549 37.3058 13.125 36.8036 13.7946 36.1339C14.4643 35.4643 15.0335 34.7835 15.5022 34.0915C15.971 33.3772 16.4732 32.5067 17.0089 31.4799C17.7232 30.096 18.5938 28.1875 19.6205 25.7545C20.2679 24.2812 20.8147 23.0424 21.2612 22.0379C21.7299 21.0335 22.3326 19.8616 23.0692 18.5223C23.8281 17.183 24.5424 16.067 25.2121 15.1741C25.904 14.2812 26.7299 13.3549 27.6897 12.3951C28.6719 11.4353 29.6763 10.6763 30.7031 10.1183C31.7522 9.53794 32.9464 9.06919 34.2857 8.71205C35.625 8.33259 37.0536 8.14286 38.5714 8.14286H47.1429V1.71428C47.1429 1.40178 47.2433 1.14509 47.4442 0.944193C47.6451 0.743302 47.9018 0.642856 48.2143 0.642856C48.4821 0.642856 48.75 0.754463 49.0179 0.977678L59.6987 11.6585Z" fill="white"/>
</svg>
