<svg width="43" height="35" viewBox="0 0 43 35" fill="none" xmlns="http://www.w3.org/2000/svg">
<path d="M42.6038 4.78571C41.0502 5.45535 39.3627 5.9375 37.6217 6.125C39.4163 5.05357 40.7824 3.36607 41.4252 1.35714C39.7645 2.34821 37.8895 3.07143 35.9342 3.44643C34.3538 1.75893 32.1038 0.714285 29.6127 0.714285C24.8181 0.714285 20.9609 4.59821 20.9609 9.36607C20.9609 10.0357 21.0413 10.7054 21.1752 11.3482C13.9967 10.9732 7.59487 7.54464 3.33594 2.29464C2.58594 3.58035 2.15737 5.05357 2.15737 6.66071C2.15737 9.66071 3.68415 12.3125 6.01451 13.8661C4.59487 13.8125 3.25558 13.4107 2.10379 12.7679C2.10379 12.7946 2.10379 12.8482 2.10379 12.875C2.10379 17.0804 5.07701 20.5625 9.0413 21.3661C8.31808 21.5536 7.5413 21.6607 6.76451 21.6607C6.20201 21.6607 5.6663 21.6071 5.13058 21.5268C6.2288 24.9554 9.4163 27.4464 13.2199 27.5268C10.2467 29.8571 6.52344 31.2232 2.47879 31.2232C1.75558 31.2232 1.08594 31.1964 0.389509 31.1161C4.21987 33.5804 8.77344 35 13.6752 35C29.5859 35 38.2913 21.8214 38.2913 10.3839C38.2913 10.0089 38.2913 9.63393 38.2645 9.25893C39.952 8.02678 41.4252 6.5 42.6038 4.78571Z" fill="#1E0E62"/>
</svg>
